<?xml version="1.0" encoding="UTF-8" standalone="no"?>
<svg
   viewBox="128.0593 29.215 2399.997 2400.0012"
   width="2400"
   height="2400"
   version="1.1"
   id="svg10"
   xml:space="preserve"
   xmlns:xlink="http://www.w3.org/1999/xlink"
   xmlns="http://www.w3.org/2000/svg"
   xmlns:svg="http://www.w3.org/2000/svg"><defs
     id="defs2"><linearGradient
       id="linearGradient8"><stop
         style="stop-color:#fdfdfd;stop-opacity:1;"
         offset="0.50259823"
         id="stop8" /><stop
         style="stop-color:#ffffff;stop-opacity:0;"
         offset="1"
         id="stop9" /></linearGradient><linearGradient
       xlink:href="#linearGradient8"
       id="linearGradient9"
       x1="-107.28035"
       y1="20.362432"
       x2="-67.28035"
       y2="20.362432"
       gradientUnits="userSpaceOnUse" /><linearGradient
       xlink:href="#linearGradient8"
       id="linearGradient6"
       gradientUnits="userSpaceOnUse"
       x1="-107.28035"
       y1="20.362432"
       x2="-67.28035"
       y2="20.362432" /></defs><rect
     style="fill:#000000;fill-opacity:1;stroke:none;stroke-width:0;stroke-linejoin:miter;paint-order:stroke fill markers"
     id="rect62-8-0"
     width="2400.0012"
     height="2400.0012"
     x="128.05786"
     y="29.214844"
     ry="0" /><g
     id="group-1-8-3-8-9"
     transform="matrix(0,30.000015,-30.000015,0,1938.9317,3847.6275)"
     style="fill:url(#linearGradient9);fill-opacity:1;stroke:#fdfdfd;stroke-width:0.166667;stroke-dasharray:none;stroke-opacity:1"><path
       d="m -77.280349,28.362433 v -16 c 0,-1.105 -0.895,-2 -2,-2 h -0.101 c -0.53,0 -1.039,0.211 -1.414,0.586 l -15.898999,15.899 c -0.375,0.375 -0.586,0.884 -0.586,1.414 v 12.101 h -10.000002 v -12.101 c 0,-3.182 1.264,-6.234 3.515,-8.485 L -87.866349,3.8774334 c 2.251,-2.251 5.303,-3.51499995 8.485,-3.51499995 h 0.101 c 6.627,0 12.000001,5.37299995 12.000001,11.99999955 v 16 c 0,6.627 -5.373001,12 -12.000001,12 h -13.999999 v -10 h 13.999999 c 1.105,0 2,-0.895 2,-2 z"
       id="path3-4-6-4-3"
       style="fill:url(#linearGradient6);fill-opacity:1;stroke:#fdfdfd;stroke-width:0.166667;stroke-dasharray:none;stroke-opacity:1" /></g></svg>
