<?xml version="1.0" encoding="UTF-8" standalone="no"?>
<svg
   viewBox="128.0593 29.215 2399.997 2400.0012"
   width="2400"
   height="2400"
   version="1.1"
   id="svg10"
   xml:space="preserve"
   xmlns="http://www.w3.org/2000/svg"
   xmlns:svg="http://www.w3.org/2000/svg"><defs
     id="defs2" /><g
     id="g62"
     transform="translate(3730.769,-7096.0181)"><rect
       style="opacity:1;fill:none;fill-opacity:1;stroke:#ffffff;stroke-width:0;paint-order:stroke fill markers"
       id="rect62"
       width="2400.0012"
       height="2400.0012"
       x="-3602.7112"
       y="7125.2334"
       ry="21.396826" /><g
       id="group-1-8-3"
       transform="matrix(0,30.000015,-30.000015,0,-1791.8371,10943.646)"
       style="fill:#fdfdfd;fill-opacity:1"><path
         d="m -77.280349,28.362433 v -16 c 0,-1.105 -0.895,-2 -2,-2 h -0.101 c -0.53,0 -1.039,0.211 -1.414,0.586 l -15.898999,15.899 c -0.375,0.375 -0.586,0.884 -0.586,1.414 v 12.101 h -10.000002 v -12.101 c 0,-3.182 1.264,-6.234 3.515,-8.485 L -87.866349,3.8774334 c 2.251,-2.251 5.303,-3.51499995 8.485,-3.51499995 h 0.101 c 6.627,0 12.000001,5.37299995 12.000001,11.99999955 v 16 c 0,6.627 -5.373001,12 -12.000001,12 h -13.999999 v -10 h 13.999999 c 1.105,0 2,-0.895 2,-2 z"
         id="path3-4-6"
         style="fill:#fdfdfd;fill-opacity:1" /></g></g></svg>
